<svg width="12" height="13" viewBox="0 0 12 13" fill="none" xmlns="http://www.w3.org/2000/svg">
<path d="M5.16602 7.33366H0.999352C0.763241 7.33366 0.565463 7.25366 0.406019 7.09366C0.246574 6.93366 0.166574 6.73588 0.166018 6.50033C0.165463 6.26477 0.245463 6.067 0.406019 5.90699C0.566574 5.74699 0.764352 5.667 0.999352 5.667H5.16602V1.50033C5.16602 1.26422 5.24602 1.06644 5.40602 0.906995C5.56602 0.747551 5.7638 0.667551 5.99935 0.666995C6.23491 0.66644 6.43296 0.74644 6.59352 0.906995C6.75407 1.06755 6.8338 1.26533 6.83269 1.50033V5.667H10.9994C11.2355 5.667 11.4335 5.74699 11.5935 5.90699C11.7535 6.067 11.8332 6.26477 11.8327 6.50033C11.8321 6.73588 11.7521 6.93394 11.5927 7.0945C11.4332 7.25505 11.2355 7.33477 10.9994 7.33366H6.83269V11.5003C6.83269 11.7364 6.75268 11.9345 6.59268 12.0945C6.43268 12.2545 6.23491 12.3342 5.99935 12.3337C5.7638 12.3331 5.56602 12.2531 5.40602 12.0937C5.24602 11.9342 5.16602 11.7364 5.16602 11.5003V7.33366Z" fill="#13A100"/>
</svg>
