<svg width="75" height="76" viewBox="0 0 75 76" fill="none" xmlns="http://www.w3.org/2000/svg">
<path d="M2.25921 55.2941C14.9745 55.8955 28.1486 52.6846 38.0094 44.4677C43.2061 40.1366 47.1824 34.735 49.5704 28.8808C51.8882 23.201 51.6925 17.5958 52.8151 11.8309C53.2538 9.57992 56.6335 9.97353 57.2929 11.6275C62.0708 23.61 51.9814 40.2571 41.2876 48.3985C30.2646 56.7899 15.3433 60.7647 1.7829 58.1096C0.0946165 57.7787 0.395985 55.2059 2.25921 55.2941Z" fill="white"/>
<path d="M64.8139 29.1079C63.1335 26.1745 61.1099 23.2621 59.0096 20.5567C57.0051 17.9742 53.9482 15.8414 52.7865 12.8434C51.9766 10.7525 54.992 9.10953 56.9354 9.91746C60.2726 11.3053 62.3131 15.1021 63.8943 17.9314C65.7245 21.2065 66.7033 24.4482 67.3246 28.1025C67.5349 29.3432 65.532 30.3625 64.8139 29.1079Z" fill="white"/>
<path d="M37.0697 23.4088C41.7048 18.4048 47.6602 14.407 53.3068 10.3423C57.3004 7.46656 61.5094 12.2076 57.3266 15.0123C51.381 18.9973 45.1327 22.9347 38.0862 25.0021C36.9291 25.3416 36.3917 24.1404 37.0697 23.4088Z" fill="white"/>
<path d="M20.0691 49.4885C29.9516 45.5644 38.6449 41.6032 43.2644 32.2554C43.5994 31.5767 44.8995 31.9915 44.5902 32.6848C40.5217 41.7909 31.1328 48.963 20.1614 50.2339C19.6288 50.2955 19.6521 49.6541 20.0691 49.4885Z" fill="white"/>
<path d="M44.9502 28.8311C45.0025 28.7932 45.0547 28.7552 45.107 28.7173C45.5301 28.4102 46.1702 28.4588 46.3086 28.9557C46.447 29.4526 45.9227 29.8229 45.4024 29.7779C45.338 29.7722 45.2736 29.7666 45.2092 29.761C44.7519 29.7197 44.5794 29.1002 44.9502 28.8311Z" fill="white"/>
</svg>
