<svg width="58" height="26" viewBox="0 0 58 26" fill="none" xmlns="http://www.w3.org/2000/svg">
<rect width="58" height="26" rx="2" fill="#15803D"/>
<path d="M16 16.7874L20.944 19.6667L19.632 14.24L24 10.5888L18.248 10.1102L16 5L13.752 10.1102L8 10.5888L12.36 14.24L11.056 19.6667L16 16.7874Z" fill="#FEFEFE"/>
<path d="M26.9318 16.6136V15.4545L32.0455 7.36364H32.8864V9.15909H32.3182L28.4545 15.2727V15.3636H35.3409V16.6136H26.9318ZM32.4091 19V16.2614V15.7216V7.36364H33.75V19H32.4091ZM37.9233 19.0909C37.643 19.0909 37.4025 18.9905 37.2017 18.7898C37.0009 18.589 36.9006 18.3485 36.9006 18.0682C36.9006 17.7879 37.0009 17.5473 37.2017 17.3466C37.4025 17.1458 37.643 17.0455 37.9233 17.0455C38.2036 17.0455 38.4441 17.1458 38.6449 17.3466C38.8456 17.5473 38.946 17.7879 38.946 18.0682C38.946 18.2538 38.8987 18.4242 38.804 18.5795C38.7131 18.7348 38.59 18.8598 38.4347 18.9545C38.2831 19.0455 38.1127 19.0909 37.9233 19.0909ZM41.3295 19V17.9773L45.1705 13.7727C45.6212 13.2803 45.9924 12.8523 46.2841 12.4886C46.5758 12.1212 46.7917 11.7765 46.9318 11.4545C47.0758 11.1288 47.1477 10.7879 47.1477 10.4318C47.1477 10.0227 47.0492 9.66856 46.8523 9.36932C46.6591 9.07008 46.3939 8.83901 46.0568 8.67614C45.7197 8.51326 45.3409 8.43182 44.9205 8.43182C44.4735 8.43182 44.0833 8.52462 43.75 8.71023C43.4205 8.89205 43.1648 9.14773 42.983 9.47727C42.8049 9.80682 42.7159 10.1932 42.7159 10.6364H41.375C41.375 9.95455 41.5322 9.35606 41.8466 8.84091C42.161 8.32576 42.589 7.92424 43.1307 7.63636C43.6761 7.34848 44.2879 7.20455 44.9659 7.20455C45.6477 7.20455 46.2519 7.34848 46.7784 7.63636C47.3049 7.92424 47.7178 8.3125 48.017 8.80114C48.3163 9.28977 48.4659 9.83333 48.4659 10.4318C48.4659 10.8598 48.3883 11.2784 48.233 11.6875C48.0814 12.0928 47.8163 12.5455 47.4375 13.0455C47.0625 13.5417 46.5417 14.1477 45.875 14.8636L43.2614 17.6591V17.75H48.6705V19H41.3295Z" fill="white"/>
</svg>
